<svg xmlns="http://www.w3.org/2000/svg" xmlns:xlink="http://www.w3.org/1999/xlink" width="1600" zoomAndPan="magnify" viewBox="0 0 1200 628.499981" height="838" preserveAspectRatio="xMidYMid meet" version="1.0"><defs><g/><clipPath id="2bc7935a5c"><path d="M 587 139 L 751 139 L 751 292.128906 L 587 292.128906 Z M 587 139 " clip-rule="nonzero"/></clipPath><clipPath id="d7dbd91d9d"><path d="M 1036 74.800781 L 1115 74.800781 L 1115 153 L 1036 153 Z M 1036 74.800781 " clip-rule="nonzero"/></clipPath><clipPath id="e84b0a6e89"><rect x="0" width="1108" y="0" height="384"/></clipPath></defs><path fill="#f6c9c5" d="M 1045.296875 134.796875 C 1017.472656 159.332031 987.085938 186.429688 959.257812 210.960938 C 959.273438 210.984375 959.285156 211.007812 959.300781 211.03125 C 959.582031 211.421875 959.851562 211.84375 960.089844 212.320312 C 960.363281 212.789062 960.574219 213.257812 960.746094 213.722656 C 962.8125 218.285156 964.019531 223.203125 964.371094 228.171875 C 994.554688 201.554688 1027.304688 172.382812 1057.484375 145.769531 C 1052.734375 142.957031 1048.546875 139.214844 1045.296875 134.796875 Z M 1045.296875 134.796875 " fill-opacity="1" fill-rule="nonzero"/><path fill="#f6c9c5" d="M 817.777344 134.941406 C 817.347656 141.003906 815.472656 146.832031 812.472656 151.984375 C 837.765625 174.28125 865.621094 199.144531 890.917969 221.441406 C 892.230469 215.90625 894.699219 210.671875 898.289062 206.226562 C 872.304688 183.320312 843.757812 157.851562 817.777344 134.941406 Z M 817.777344 134.941406 " fill-opacity="1" fill-rule="nonzero"/><g clip-path="url(#2bc7935a5c)"><path fill="#f6c9c5" d="M 649.480469 222.714844 C 643.121094 217.894531 635.160156 214.925781 626.109375 214.4375 C 604.105469 213.25 588.207031 233.160156 587.113281 253.429688 C 585.929688 275.441406 605.84375 291.339844 626.109375 292.429688 C 647.234375 293.570312 662.691406 275.261719 664.867188 255.867188 C 665.042969 255.121094 665.15625 254.335938 665.109375 253.433594 C 665.15625 252.550781 665.046875 251.773438 664.878906 251.042969 C 664.265625 245.1875 662.636719 239.804688 660.089844 235.085938 C 689.699219 208.984375 720.589844 181.597656 750.199219 155.496094 C 746.730469 150.984375 744.257812 145.722656 743.175781 139.96875 C 712.371094 167.121094 680.285156 195.5625 649.480469 222.714844 Z M 603.4375 253.429688 C 601.863281 224.1875 647.214844 224.339844 648.785156 253.429688 C 647.210938 282.65625 605.011719 282.65625 603.4375 253.429688 Z M 603.4375 253.429688 " fill-opacity="1" fill-rule="nonzero"/></g><path fill="#f6c9c5" d="M 818.867188 128.859375 C 818.828125 128.554688 818.777344 128.253906 818.71875 127.957031 C 818.699219 127.546875 818.660156 127.125 818.578125 126.691406 C 814.882812 107.066406 796.714844 93.242188 776.816406 94.914062 C 756.578125 96.613281 741.847656 113.851562 741.292969 133.71875 C 741.222656 136.300781 741.441406 138.8125 741.898438 141.246094 C 742.976562 147 745.449219 152.261719 748.917969 156.773438 C 756.597656 166.761719 769.128906 173.046875 782.160156 172.660156 C 795.734375 172.253906 807.324219 164.316406 813.757812 153.265625 C 816.757812 148.113281 818.628906 142.285156 819.058594 136.222656 C 819.230469 133.796875 819.183594 131.332031 818.867188 128.859375 Z M 782.15625 156.335938 C 768.648438 157.546875 758.273438 146.664062 757.617188 133.71875 C 757.027344 122.0625 766.640625 113.289062 777.289062 111.183594 C 789.777344 108.722656 800.113281 118.890625 802.652344 130.15625 C 803.699219 143.089844 795.898438 155.101562 782.15625 156.335938 Z M 782.15625 156.335938 " fill-opacity="1" fill-rule="nonzero"/><path fill="#f6c9c5" d="M 961.371094 211.039062 C 961.128906 210.558594 960.863281 210.136719 960.582031 209.75 C 960.566406 209.722656 960.554688 209.703125 960.539062 209.679688 C 949.210938 191.785156 926.71875 186.03125 907.894531 195.976562 C 903.539062 198.277344 899.910156 201.351562 897.007812 204.941406 C 893.417969 209.386719 890.949219 214.621094 889.636719 220.160156 C 887.289062 230.066406 888.628906 240.945312 893.828125 250.003906 C 904.132812 267.964844 926.761719 272.804688 944.78125 264.652344 C 959.761719 257.875 966.753906 242.183594 965.660156 226.886719 C 965.304688 221.921875 964.097656 217 962.035156 212.4375 C 961.855469 211.972656 961.644531 211.503906 961.371094 211.039062 Z M 938.035156 249.777344 C 928.34375 255.519531 915.257812 252.035156 908.8125 243.140625 C 901.335938 232.832031 904.171875 218.300781 914.484375 211.078125 C 925.789062 203.15625 940.667969 207.914062 947.277344 219.273438 C 952.929688 230.585938 948.714844 243.441406 938.035156 249.777344 Z M 938.035156 249.777344 " fill-opacity="1" fill-rule="nonzero"/><g clip-path="url(#d7dbd91d9d)"><path fill="#f6c9c5" d="M 1114.898438 112.015625 C 1114.328125 91.527344 1097.035156 76.046875 1077.304688 74.835938 C 1076.871094 74.785156 1076.425781 74.753906 1075.953125 74.769531 C 1075.484375 74.753906 1075.042969 74.785156 1074.617188 74.835938 C 1054.109375 76.039062 1038.71875 91.527344 1036.996094 112.015625 C 1036.246094 120.980469 1039.035156 129.3125 1044.015625 136.078125 C 1047.261719 140.496094 1051.449219 144.238281 1056.207031 147.046875 C 1063.121094 151.136719 1071.238281 153.257812 1079.425781 152.570312 C 1100.179688 150.828125 1115.472656 132.519531 1114.898438 112.015625 Z M 1078.953125 136.296875 C 1064.421875 139.167969 1052.957031 125.359375 1053.328125 112.015625 C 1053.660156 100.082031 1064.6875 91.40625 1075.957031 91.09375 C 1087.722656 91.421875 1097.574219 100.089844 1098.574219 112.015625 C 1099.613281 124.375 1090.574219 134.003906 1078.953125 136.296875 Z M 1078.953125 136.296875 " fill-opacity="1" fill-rule="nonzero"/></g><g transform="matrix(1, 0, 0, 1, 44, 244)"><g clip-path="url(#e84b0a6e89)"><g fill="#f1e8e8" fill-opacity="1"><g transform="translate(0.422559, 299.244934)"><g><path d="M 5.9375 -198.140625 L 90.578125 -198.140625 C 116.804688 -198.140625 136.476562 -194.597656 149.59375 -187.515625 C 162.707031 -180.441406 169.265625 -168.507812 169.265625 -151.71875 C 169.265625 -125.863281 153.695312 -110.390625 122.5625 -105.296875 L 122.5625 -104.734375 C 160.300781 -100.015625 179.171875 -83.597656 179.171875 -55.484375 C 179.171875 -34.910156 171.429688 -20.519531 155.953125 -12.3125 C 140.484375 -4.101562 118.21875 0 89.15625 0 L 5.9375 0 L 5.9375 -5.375 L 24.34375 -5.375 L 24.34375 -192.75 L 5.9375 -192.75 Z M 79.53125 -100.203125 L 79.53125 -5.375 L 92.84375 -5.375 C 103.21875 -5.375 110.476562 -8.957031 114.625 -16.125 C 118.78125 -23.300781 120.859375 -33.867188 120.859375 -47.828125 L 120.859375 -62.84375 C 120.859375 -75.289062 118.3125 -84.628906 113.21875 -90.859375 C 108.125 -97.085938 99.066406 -100.203125 86.046875 -100.203125 Z M 79.53125 -192.75 L 79.53125 -105.578125 L 86.890625 -105.578125 C 96.703125 -105.578125 103.539062 -108.546875 107.40625 -114.484375 C 111.28125 -120.429688 113.21875 -129.539062 113.21875 -141.8125 L 113.21875 -155.109375 C 113.21875 -169.078125 111.519531 -178.84375 108.125 -184.40625 C 104.726562 -189.96875 98.21875 -192.75 88.59375 -192.75 Z M 79.53125 -192.75 "/></g></g></g><g fill="#f1e8e8" fill-opacity="1"><g transform="translate(186.949802, 299.244934)"><g><path d="M 97.375 -126.8125 C 90.382812 -126.8125 84.25 -122.28125 78.96875 -113.21875 C 73.6875 -104.15625 71.046875 -93.398438 71.046875 -80.953125 L 71.046875 -5.09375 L 91.140625 -5.09375 L 91.140625 0 L 2.828125 0 L 2.828125 -5.09375 L 18.390625 -5.09375 L 18.390625 -129.640625 L 2.828125 -129.640625 L 2.828125 -134.734375 L 71.046875 -134.734375 L 71.046875 -107.5625 C 73.492188 -117.1875 78.207031 -124.59375 85.1875 -129.78125 C 92.175781 -134.96875 100.101562 -137.5625 108.96875 -137.5625 C 117.84375 -137.5625 125.0625 -135.0625 130.625 -130.0625 C 136.1875 -125.0625 138.96875 -117.984375 138.96875 -108.828125 C 138.96875 -99.679688 136.890625 -92.65625 132.734375 -87.75 C 128.585938 -82.84375 122.222656 -80.390625 113.640625 -80.390625 C 105.054688 -80.390625 98.734375 -83.21875 94.671875 -88.875 C 90.617188 -94.539062 90.101562 -102.375 93.125 -112.375 L 103.3125 -112.375 C 108.03125 -122 106.050781 -126.8125 97.375 -126.8125 Z M 97.375 -126.8125 "/></g></g></g><g fill="#f1e8e8" fill-opacity="1"><g transform="translate(327.057521, 299.244934)"><g><path d="M 7.078125 -198.140625 L 93.40625 -198.140625 L 93.40625 -192.75 L 77.84375 -192.75 L 77.84375 -5.375 L 93.40625 -5.375 L 93.40625 0 L 7.078125 0 L 7.078125 -5.375 L 22.640625 -5.375 L 22.640625 -192.75 L 7.078125 -192.75 Z M 7.078125 -198.140625 "/></g></g></g><g fill="#f1e8e8" fill-opacity="1"><g transform="translate(427.538808, 299.244934)"><g><path d="M 3.390625 -134.734375 L 71.609375 -134.734375 L 71.609375 -108.6875 C 74.628906 -117.363281 79.253906 -124.34375 85.484375 -129.625 C 91.710938 -134.914062 101.144531 -137.5625 113.78125 -137.5625 C 143.03125 -137.5625 157.65625 -121.804688 157.65625 -90.296875 L 157.65625 -5.09375 L 173.5 -5.09375 L 173.5 0 L 93.40625 0 L 93.40625 -5.09375 L 105.015625 -5.09375 L 105.015625 -97.078125 C 105.015625 -108.398438 104.257812 -115.710938 102.75 -119.015625 C 101.238281 -122.316406 98.5 -123.96875 94.53125 -123.96875 C 88.5 -123.96875 83.171875 -120.003906 78.546875 -112.078125 C 73.921875 -104.160156 71.609375 -94.539062 71.609375 -83.21875 L 71.609375 -5.09375 L 83.78125 -5.09375 L 83.78125 0 L 3.390625 0 L 3.390625 -5.09375 L 18.96875 -5.09375 L 18.96875 -129.640625 L 3.390625 -129.640625 Z M 3.390625 -134.734375 "/></g></g></g><g fill="#f1e8e8" fill-opacity="1"><g transform="translate(587.742836, 299.244934)"><g><path d="M 0 -129.640625 L 0 -134.734375 L 84.625 -134.734375 L 84.625 -129.640625 L 66.796875 -129.640625 L 100.765625 -35.65625 L 131.328125 -129.640625 L 112.375 -129.640625 L 112.375 -134.734375 L 150.578125 -134.734375 L 150.578125 -129.640625 L 138.125 -129.640625 L 96.234375 0 L 63.96875 0 L 11.609375 -129.640625 Z M 0 -129.640625 "/></g></g></g><g fill="#f1e8e8" fill-opacity="1"><g transform="translate(731.24709, 299.244934)"><g><path d="M 77.265625 2.828125 C 52.929688 2.828125 34.675781 -3.441406 22.5 -15.984375 C 10.332031 -28.535156 4.25 -45.988281 4.25 -68.34375 C 4.25 -90.707031 11.085938 -107.832031 24.765625 -119.71875 C 38.441406 -131.613281 55.847656 -137.5625 76.984375 -137.5625 C 119.816406 -137.5625 140.382812 -116.050781 138.6875 -73.03125 L 58.875 -73.03125 L 58.875 -61.984375 C 58.875 -43.492188 61.234375 -29.53125 65.953125 -20.09375 C 70.671875 -10.65625 78.878906 -5.9375 90.578125 -5.9375 C 112.460938 -5.9375 126.800781 -17.640625 133.59375 -41.046875 L 138.6875 -40.1875 C 135.101562 -26.601562 128.640625 -16.035156 119.296875 -8.484375 C 109.960938 -0.941406 95.953125 2.828125 77.265625 2.828125 Z M 59.15625 -78.6875 L 88.3125 -78.6875 L 88.3125 -92.5625 C 88.3125 -107.84375 87.414062 -118.265625 85.625 -123.828125 C 83.832031 -129.398438 80.242188 -132.1875 74.859375 -132.1875 C 69.484375 -132.1875 65.519531 -129.210938 62.96875 -123.265625 C 60.425781 -117.316406 59.15625 -107.082031 59.15625 -92.5625 Z M 59.15625 -78.6875 "/></g></g></g><g fill="#f1e8e8" fill-opacity="1"><g transform="translate(874.468295, 299.244934)"><g><path d="M 9.34375 2.828125 L 9.34375 -47.828125 L 12.734375 -47.828125 C 17.640625 -31.410156 24.242188 -19.898438 32.546875 -13.296875 C 40.847656 -6.691406 51.226562 -3.390625 63.6875 -3.390625 C 82.9375 -3.390625 92.5625 -9.523438 92.5625 -21.796875 C 92.5625 -27.078125 90.203125 -31.039062 85.484375 -33.6875 C 78.117188 -37.832031 68.679688 -41.039062 57.171875 -43.3125 C 44.335938 -46.707031 33.582031 -51.234375 24.90625 -56.890625 C 14.53125 -63.679688 9.34375 -74.4375 9.34375 -89.15625 C 9.34375 -103.875 13.867188 -115.617188 22.921875 -124.390625 C 31.984375 -133.171875 44.0625 -137.5625 59.15625 -137.5625 C 68.40625 -137.5625 77.9375 -135.390625 87.75 -131.046875 C 91.332031 -129.535156 94.066406 -128.78125 95.953125 -128.78125 C 97.835938 -128.78125 99.441406 -129.441406 100.765625 -130.765625 C 102.085938 -132.085938 103.691406 -134.539062 105.578125 -138.125 L 108.6875 -138.125 L 108.6875 -94.828125 L 105.296875 -94.828125 C 95.671875 -119.347656 80.765625 -131.609375 60.578125 -131.609375 C 51.703125 -131.609375 45.09375 -130.050781 40.75 -126.9375 C 36.414062 -123.832031 34.25 -119.921875 34.25 -115.203125 C 34.25 -112.367188 34.910156 -110.148438 36.234375 -108.546875 C 37.554688 -106.941406 38.59375 -105.757812 39.34375 -105 C 40.09375 -104.25 41.316406 -103.445312 43.015625 -102.59375 C 44.722656 -101.75 46.140625 -101.09375 47.265625 -100.625 C 48.398438 -100.15625 50.144531 -99.539062 52.5 -98.78125 C 54.863281 -98.03125 56.609375 -97.5625 57.734375 -97.375 C 70.566406 -94.164062 79.8125 -91.378906 85.46875 -89.015625 C 91.132812 -86.660156 96.515625 -83.785156 101.609375 -80.390625 C 111.992188 -73.210938 117.1875 -61.648438 117.1875 -45.703125 C 117.1875 -29.765625 112.46875 -17.691406 103.03125 -9.484375 C 93.59375 -1.273438 80.664062 2.828125 64.25 2.828125 C 52.550781 2.828125 41.226562 0.09375 30.28125 -5.375 C 28.019531 -6.882812 26.226562 -7.640625 24.90625 -7.640625 C 20.757812 -7.640625 16.703125 -4.148438 12.734375 2.828125 Z M 9.34375 2.828125 "/></g></g></g><g fill="#f1e8e8" fill-opacity="1"><g transform="translate(994.479834, 299.244934)"><g><path d="M 16.984375 -40.46875 L 16.984375 -129.640625 L 1.421875 -129.640625 L 1.421875 -134.734375 L 16.984375 -134.734375 L 16.984375 -171.25 L 69.625 -184.265625 L 69.625 -134.734375 L 106.421875 -134.734375 L 106.421875 -129.640625 L 69.625 -129.640625 L 69.625 -34.25 C 69.625 -25.382812 70.519531 -18.875 72.3125 -14.71875 C 74.101562 -10.5625 77.828125 -8.484375 83.484375 -8.484375 C 89.148438 -8.484375 94.109375 -11.3125 98.359375 -16.96875 C 102.609375 -22.632812 105.390625 -30.375 106.703125 -40.1875 L 111.515625 -39.625 C 110.003906 -26.601562 105.851562 -16.269531 99.0625 -8.625 C 92.269531 -0.988281 81.039062 2.828125 65.375 2.828125 C 49.71875 2.828125 37.738281 -0.28125 29.4375 -6.5 C 21.132812 -12.726562 16.984375 -24.050781 16.984375 -40.46875 Z M 16.984375 -40.46875 "/></g></g></g></g></g></svg>